<svg width="169" height="64" viewBox="0 0 169 64" fill="none" xmlns="http://www.w3.org/2000/svg">
<path d="M3.94993 36.3867H11.8439V33.0055H3.94993V29.0608H12.9716V25.6796H0.00292969V43.7127H13.5355V40.3315H3.94993V36.3867Z" fill="#231E4D"/>
<path d="M51.3138 40.3315H41.7283V36.3867H49.6223V33.0055H41.7283V29.0608H50.75V25.6796H37.7812V43.7127H51.3138V40.3315Z" fill="#231E4D"/>
<path d="M106.008 29.0608V25.6796H90.22V29.0608H96.1405V43.7127H100.087V29.0608H106.008Z" fill="#231E4D"/>
<path d="M112.492 25.6796L104.598 43.7127H109.109L114.748 30.3541L120.386 43.7127H124.897L117.003 25.6796H112.492Z" fill="#231E4D"/>
<path d="M27.6318 43.7127L35.5258 25.6796H31.0149L25.3764 39.0382L19.7378 25.6796H15.2269L23.1209 43.7127H27.6318Z" fill="#231E4D"/>
<path d="M3.37469 53.5915C3.84551 53.1378 4.40936 52.7856 5.0578 52.532C5.70624 52.2813 6.40824 52.1545 7.16381 52.1545C7.9081 52.1545 8.596 52.2784 9.23316 52.5208C9.8675 52.7659 10.4567 53.1547 10.998 53.6816L12.1709 52.5095C11.5675 51.8304 10.8289 51.3204 9.96054 50.9795C9.08938 50.6385 8.13364 50.4695 7.08769 50.4695C6.05301 50.4695 5.10855 50.6357 4.2543 50.971C3.39724 51.3035 2.65013 51.7769 2.01297 52.3855C1.37863 52.9969 0.882436 53.7126 0.530026 54.5298C0.177615 55.3497 0 56.2485 0 57.2319C0 58.2153 0.174796 59.1141 0.530026 59.9341C0.882436 60.754 1.37581 61.4669 2.00451 62.0783C2.63603 62.6898 3.37751 63.1631 4.23457 63.4956C5.09163 63.8281 6.03045 63.9943 7.05104 63.9943C7.98422 63.9943 8.88639 63.8534 9.76319 63.5689C10.6372 63.2871 11.404 62.8673 12.0609 62.3122V57.1558H10.2453V61.4528C9.90415 61.6754 9.54892 61.8585 9.17678 61.9853C8.52834 62.2051 7.84889 62.315 7.14407 62.315C6.3885 62.315 5.68932 62.1882 5.04652 61.9374C4.40373 61.6867 3.84551 61.3288 3.37187 60.8695C2.89823 60.4102 2.53454 59.8664 2.27798 59.2437C2.01861 58.6182 1.88892 57.9504 1.88892 57.2319C1.88892 56.5021 2.01861 55.8259 2.27798 55.2004C2.53736 54.5833 2.90387 54.0451 3.37469 53.5915Z" fill="#231E4D"/>
<path d="M17.5613 50.6273H15.6696V63.8507H24.7223V62.2052H17.5613V50.6273Z" fill="#231E4D"/>
<path d="M37.6431 52.3912C37.0059 51.7798 36.2645 51.3093 35.413 50.9768C34.5616 50.6443 33.6341 50.4752 32.6248 50.4752C31.6042 50.4752 30.6654 50.6471 29.8083 50.9852C28.9512 51.3262 28.2098 51.7995 27.5782 52.411C26.9495 53.0224 26.4562 53.7353 26.1038 54.5552C25.7513 55.3752 25.5737 56.2684 25.5737 57.2376C25.5737 58.2069 25.7485 59.103 26.1038 59.9201C26.4562 60.74 26.9495 61.4529 27.5782 62.0643C28.2098 62.6758 28.9541 63.1491 29.8168 63.4901C30.6823 63.831 31.6155 64.0001 32.6248 64.0001C33.6341 64.0001 34.5616 63.8338 35.413 63.5013C36.2645 63.1689 37.0059 62.6955 37.6431 62.0841C38.2774 61.4726 38.7708 60.7597 39.1176 59.9398C39.4644 59.1227 39.6363 58.221 39.6363 57.2376C39.6363 56.2543 39.4615 55.3554 39.1176 54.5355C38.7708 53.7184 38.2803 53.0055 37.6431 52.3912ZM37.3583 59.2607C37.099 59.8778 36.7409 60.416 36.2814 60.8753C35.8218 61.3346 35.2805 61.6896 34.6547 61.9432C34.0316 62.1939 33.3521 62.3207 32.6219 62.3207C31.8777 62.3207 31.1954 62.1939 30.5723 61.9432C29.9493 61.6924 29.4023 61.3346 28.9371 60.8753C28.472 60.416 28.1083 59.875 27.8517 59.2607C27.5923 58.6437 27.4655 57.9702 27.4655 57.2405C27.4655 56.5107 27.5952 55.8373 27.8517 55.2202C28.1083 54.6031 28.472 54.0649 28.9371 53.6057C29.4023 53.1464 29.9464 52.7885 30.5723 52.5378C31.1982 52.287 31.8805 52.1602 32.6219 52.1602C33.3521 52.1602 34.0316 52.287 34.6547 52.5378C35.2777 52.7885 35.8218 53.1464 36.2814 53.6057C36.7409 54.0649 37.099 54.6031 37.3583 55.2202C37.6177 55.8373 37.7446 56.5107 37.7446 57.2405C37.7446 57.9702 37.6177 58.6437 37.3583 59.2607Z" fill="#231E4D"/>
<path d="M52.0186 57.2207C51.8241 57.1333 51.6183 57.0629 51.404 57.0065C51.4125 57.0009 51.4238 56.9981 51.4322 56.9953C51.9735 56.7304 52.4049 56.3528 52.7263 55.8626C53.0477 55.3723 53.2084 54.7665 53.2084 54.0508C53.2084 52.9913 52.7996 52.1573 51.9792 51.5459C51.1616 50.9344 49.9888 50.6301 48.4635 50.6301H42.5289V63.8535H48.8413C50.5188 63.8535 51.7818 63.5407 52.6304 62.918C53.4819 62.2925 53.9076 61.4162 53.9076 60.2835C53.9076 59.5284 53.7356 58.8944 53.3973 58.3844C53.059 57.8716 52.5966 57.4827 52.0186 57.2207ZM48.2944 52.1573C49.2529 52.1573 49.9944 52.3348 50.5244 52.687C51.0545 53.0392 51.3195 53.569 51.3195 54.2734C51.3195 54.9778 51.0545 55.5075 50.5244 55.8597C49.9944 56.2119 49.2529 56.3895 48.2944 56.3895H44.4207V52.1601H48.2944V52.1573ZM51.1672 61.7909C50.6118 62.1432 49.8111 62.3207 48.7652 62.3207H44.4179V57.9195H48.7652C49.8111 57.9195 50.6118 58.0942 51.1672 58.4492C51.7198 58.8014 51.9989 59.3621 51.9989 60.1285C51.9989 60.8837 51.7198 61.4387 51.1672 61.7909Z" fill="#231E4D"/>
<path d="M60.8233 50.6273L54.8323 63.8507H56.7776L58.2323 60.5455H65.2693L66.724 63.8507H68.7088L62.6981 50.6273H60.8233ZM58.8977 59.0325L61.7508 52.5433L64.6039 59.0325H58.8977Z" fill="#231E4D"/>
<path d="M72.5628 50.6273H70.671V63.8507H79.7238V62.2052H72.5628V50.6273Z" fill="#231E4D"/>
<path d="M138.743 37.7449C141.184 36.9108 142.941 34.6003 142.941 31.8785C142.941 28.455 140.164 25.6796 136.738 25.6796H126.589V43.7127H130.536V29.0608H136.738C138.218 29.0608 139.417 30.3231 139.417 31.8785C139.417 33.4338 138.218 34.6961 136.738 34.6961H132.227L138.994 43.7127H143.223L138.743 37.7449Z" fill="#231E4D"/>
<path d="M58.644 29.0608H64.8465C66.3266 29.0608 67.5248 30.3231 67.5248 31.8785C67.5248 33.4338 66.3266 34.6961 64.8465 34.6961H60.3356L67.1019 43.7127H71.3308L66.851 37.7449C69.2925 36.9108 71.0489 34.6003 71.0489 31.8785C71.0489 28.455 68.2719 25.6796 64.8465 25.6796H54.697V43.7127H58.644V29.0608Z" fill="#231E4D"/>
<path d="M86.0954 33.8001L78.3903 31.3741C77.0991 30.9683 77.3923 29.0608 78.7455 29.0608H87.4007V25.6796H78.379C75.8868 25.6796 73.8682 27.697 73.8682 30.1878C73.8682 32.2053 75.196 33.9128 77.0229 34.4876L84.7393 36.9165C86.648 37.5166 86.2138 40.3287 84.215 40.3287H73.8682V43.7099H84.5815C87.3838 43.7099 89.6562 41.4388 89.6562 38.6381C89.6562 36.367 88.1591 34.4425 86.0954 33.8001Z" fill="#231E4D"/>
<path d="M163.964 4.66819C157.736 -1.55606 147.638 -1.55606 141.41 4.66819C137.088 8.98769 135.766 15.1697 137.443 20.6303C143.11 20.9797 147.643 25.5105 147.993 31.1741C153.457 32.8506 159.642 31.5291 163.964 27.2096C170.192 20.9854 170.192 10.8924 163.964 4.66819ZM160.381 16.3221L154.892 17.8718C154.759 17.9085 154.655 18.0127 154.615 18.148L153.065 23.634C152.955 24.02 152.408 24.02 152.298 23.634L150.747 18.148C150.711 18.0155 150.606 17.9113 150.471 17.8718L144.982 16.3221C144.596 16.2122 144.596 15.6656 144.982 15.5557L150.471 14.006C150.603 13.9693 150.708 13.8651 150.747 13.7298L152.298 8.24382C152.408 7.8578 152.955 7.8578 153.065 8.24382L154.615 13.7298C154.652 13.8623 154.756 13.9665 154.892 14.006L160.381 15.5557C160.77 15.6656 160.77 16.215 160.381 16.3221Z" fill="url(#paint0_linear_341_1086)"/>
<defs>
<linearGradient id="paint0_linear_341_1086" x1="142.717" y1="25.9034" x2="163.951" y2="4.65674" gradientUnits="userSpaceOnUse">
<stop offset="2.77045e-07" stop-color="#BC7BB3"/>
<stop offset="1" stop-color="#1E0F2C"/>
</linearGradient>
</defs>
</svg>
