<svg width="90" height="90" viewBox="0 0 90 90" fill="none" xmlns="http://www.w3.org/2000/svg">
<path d="M57.2363 81.9375H29.7638C25.545 81.9375 22.125 78.5175 22.125 74.2987V18.54C22.125 14.3212 25.545 10.9012 29.7638 10.9012H57.2325C61.4513 10.9012 64.8713 14.3212 64.8713 18.54V74.295C64.875 78.5175 61.455 81.9375 57.2363 81.9375Z" stroke="#7F7F80" stroke-width="2" stroke-miterlimit="10"/>
<path d="M22.125 21.75H64.875" stroke="#7F7F80" stroke-width="2.0268" stroke-miterlimit="10"/>
<path d="M22.125 73.5H64.875" stroke="#7F7F80" stroke-width="2.0268" stroke-miterlimit="10"/>
<path d="M27.75 62.625H58.5" stroke="#7F7F80" stroke-width="2.0639" stroke-miterlimit="10"/>
<path d="M27.75 56.25H58.5" stroke="#7F7F80" stroke-width="2.0639" stroke-miterlimit="10"/>
<path d="M27.75 49.875H48.915" stroke="#7F7F80" stroke-width="2.0639" stroke-miterlimit="10"/>
<path d="M27.75 43.5H48.915" stroke="#7F7F80" stroke-width="2.0639" stroke-miterlimit="10"/>
<path d="M32.25 27.75L28.5 31.125L32.25 34.215" stroke="#7F7F80" stroke-width="2" stroke-miterlimit="10"/>
<path d="M44.625 27.75L48.375 31.125L44.625 34.215" stroke="#7F7F80" stroke-width="2" stroke-miterlimit="10"/>
<path d="M41.25 25.5L36.375 36.375" stroke="#7F7F80" stroke-width="2" stroke-miterlimit="10"/>
</svg>
