<svg width="90" height="90" viewBox="0 0 90 90" fill="none" xmlns="http://www.w3.org/2000/svg">
<path d="M63.4087 34.9538C63.4087 28.6913 59.3024 23.5913 54.2549 23.5913H52.6049V19.2338C52.6049 18.54 52.0424 17.9775 51.3487 17.9775C50.6549 17.9775 50.0924 18.54 50.0924 19.2338V23.595H46.2374V14.5425C46.2374 13.8488 45.6749 13.2863 44.9812 13.2863C44.2874 13.2863 43.7249 13.8488 43.7249 14.5425V23.595H36.7274C36.0337 23.595 35.4712 24.1575 35.4712 24.8513C35.4712 25.545 36.0337 26.1075 36.7274 26.1075H54.2549C57.9187 26.1075 60.8962 30.075 60.8962 34.9538C60.8962 39.8325 57.9149 43.8 54.2549 43.8H39.8062C39.1124 43.8 38.5499 44.3625 38.5499 45.0563C38.5499 45.75 39.1124 46.3125 39.8062 46.3125H54.2549C57.9187 46.3125 60.8962 50.28 60.8962 55.1587C60.8962 60.0375 57.9149 64.005 54.2549 64.005H36.7274C36.0337 64.005 35.4712 64.5675 35.4712 65.2613C35.4712 65.955 36.0337 66.5175 36.7274 66.5175H43.7249V75.0113C43.7249 75.705 44.2874 76.2675 44.9812 76.2675C45.6749 76.2675 46.2374 75.705 46.2374 75.0113V66.525H50.0924V70.83C50.0924 71.5238 50.6549 72.0862 51.3487 72.0862C52.0424 72.0862 52.6049 71.5238 52.6049 70.83V66.525H54.2549C59.3024 66.525 63.4087 61.4288 63.4087 55.1625C63.4087 50.7638 61.3837 46.9463 58.4287 45.06C61.3837 43.1738 63.4087 39.3525 63.4087 34.9538Z" fill="#7F7F80"/>
<path d="M50.5914 41.3438C54.0714 41.3438 56.8989 38.595 56.8989 35.2125C56.8989 31.83 54.0677 29.0813 50.5914 29.0813H41.5614C40.8677 29.0813 40.3052 29.6438 40.3052 30.3375V40.0838C40.3052 40.7775 40.8677 41.34 41.5614 41.34H50.5914V41.3438ZM42.8177 31.5975H50.5914C52.6839 31.5975 54.3864 33.2213 54.3864 35.2163C54.3864 37.2113 52.6839 38.835 50.5914 38.835H42.8177V31.5975Z" fill="#7F7F80"/>
<path d="M50.5914 61.3125C54.0714 61.3125 56.8989 58.5638 56.8989 55.1813C56.8989 51.8025 54.0677 49.05 50.5914 49.05H41.5614C40.8677 49.05 40.3052 49.6125 40.3052 50.3063V60.0525C40.3052 60.7463 40.8677 61.3088 41.5614 61.3088H50.5914V61.3125ZM42.8177 51.5663H50.5914C52.6839 51.5663 54.3864 53.19 54.3864 55.185C54.3864 57.18 52.6839 58.8038 50.5914 58.8038H42.8177V51.5663Z" fill="#7F7F80"/>
<path d="M70.4213 19.5788C63.6301 12.7875 54.6038 9.04877 45.0001 9.04877C35.3963 9.04877 26.3701 12.7875 19.5788 19.5788C12.7876 26.37 9.04883 35.3963 9.04883 45C9.04883 54.6038 12.7876 63.63 19.5788 70.4213C26.3701 77.2125 35.3963 80.9513 45.0001 80.9513C54.6038 80.9513 63.6301 77.2125 70.4213 70.4213C77.2126 63.63 80.9513 54.6038 80.9513 45C80.9513 35.3963 77.2126 26.37 70.4213 19.5788ZM27.0001 22.515C25.4701 22.02 23.8726 21.3075 22.5001 20.2838C25.1888 17.8313 28.2826 15.8175 31.6613 14.34C30.6413 15.8063 29.4413 17.6963 28.2338 19.995C27.8326 20.7638 27.4163 21.6113 27.0001 22.515ZM28.2226 69.3113C29.5426 71.97 30.8551 74.1488 31.9276 75.7763C28.4813 74.3063 25.3351 72.2775 22.5938 69.7988C24.0526 68.73 25.7663 68.0063 27.3751 67.5188C27.6601 68.1488 27.9451 68.7488 28.2226 69.3113ZM20.7713 68.025C15.3226 62.295 11.8838 54.645 11.5838 46.2038H22.1513C22.4288 53.6288 24.3226 60.165 26.3701 65.1975C24.4951 65.7938 22.4888 66.6863 20.7713 68.025ZM11.5876 43.6913C11.9101 35.3363 15.3113 27.7575 20.6926 22.0613C22.3126 23.3475 24.1988 24.225 25.9988 24.8288C23.9851 29.79 22.2263 36.2325 22.1288 43.6875H11.5876V43.6913ZM45.0001 78.4388C41.8988 78.4388 38.8988 78.0113 36.0488 77.22C35.2988 76.2675 32.8576 73.0125 30.4426 68.1263C30.2513 67.74 30.0563 67.3313 29.8613 66.915C31.6201 66.5813 32.8876 66.525 32.9176 66.525C33.6113 66.4988 34.1513 65.9175 34.1288 65.2238C34.1063 64.53 33.5176 63.9863 32.8276 64.0125C32.6776 64.0163 31.0238 64.0875 28.8226 64.5525C26.8276 59.73 24.9488 53.3963 24.6676 46.2038H34.8488C35.5426 46.2038 36.1051 45.6413 36.1051 44.9475C36.1051 44.2538 35.5426 43.6913 34.8488 43.6913H24.6413C24.7388 36.48 26.4751 30.255 28.4326 25.5113C30.8288 26.055 32.6701 26.13 32.8276 26.1375C32.8426 26.1375 32.8576 26.1375 32.8726 26.1375C33.5476 26.1375 34.1026 25.605 34.1288 24.9263C34.1513 24.2325 33.6113 23.6513 32.9176 23.625C32.8838 23.625 31.4288 23.565 29.4713 23.16C29.7938 22.4775 30.1126 21.8363 30.4238 21.24C32.8426 16.6163 35.2838 13.6425 36.0188 12.7875C38.8801 11.9888 41.8913 11.5613 45.0001 11.5613C63.4388 11.5613 78.4388 26.5613 78.4388 45C78.4388 63.4388 63.4388 78.4388 45.0001 78.4388Z" fill="#7F7F80"/>
</svg>
